<svg width="200" height="31" viewBox="0 0 200 31" fill="none" xmlns="http://www.w3.org/2000/svg">
<path d="M16.6887 23.2171C16.6887 28.0795 14.3231 30.5107 9.59194 30.5107H3.33774C2.81925 30.5107 2.36558 30.4239 1.97672 30.2502C1.58786 30.0548 1.2638 29.8161 1.00456 29.5339C0.74532 29.23 0.550889 28.8935 0.421268 28.5245C0.291647 28.1337 0.226837 27.7322 0.226837 27.3197C0.226837 26.929 0.291647 26.5491 0.421268 26.1801C0.550889 25.7894 0.74532 25.4529 1.00456 25.1707C1.28541 24.8668 1.62026 24.628 2.00912 24.4544C2.41959 24.259 2.88406 24.1613 3.40255 24.1613H9.9484C10.3805 24.1613 10.6937 24.0419 10.8882 23.8032C11.1042 23.5427 11.2122 23.2713 11.2122 22.9891C11.2122 22.6852 11.1042 22.403 10.8882 22.1426C10.6937 21.8821 10.3805 21.7518 9.9484 21.7518H6.70788C4.48272 21.7518 2.80845 21.2091 1.68507 20.1238C0.56169 19.0384 0 17.3127 0 14.9466C0 10.0408 2.38719 7.58787 7.16155 7.58787H12.2168C12.7569 7.58787 13.2321 7.68555 13.6426 7.88092C14.0531 8.05458 14.3987 8.29336 14.6796 8.59726C14.9604 8.87945 15.1656 9.21591 15.2953 9.60664C15.4465 9.97567 15.5221 10.3555 15.5221 10.7463C15.5221 11.137 15.4465 11.5277 15.2953 11.9185C15.1656 12.3092 14.9604 12.6565 14.6796 12.9604C14.3987 13.2643 14.0423 13.5139 13.6102 13.7093C13.1997 13.883 12.7245 13.9698 12.1844 13.9698H6.74029C6.30822 13.9698 5.99497 14.1 5.80053 14.3605C5.6061 14.5993 5.50889 14.8706 5.50889 15.1745C5.50889 15.4567 5.6061 15.7281 5.80053 15.9886C5.99497 16.2273 6.30822 16.3467 6.74029 16.3467H9.98081C12.2708 16.3467 13.9558 16.9003 15.036 18.0073C16.1378 19.1144 16.6887 20.851 16.6887 23.2171Z" fill="white"/>
<path d="M36.7169 27.4825C36.7169 28.5245 36.4036 29.3168 35.7771 29.8595C35.1506 30.3804 34.4053 30.6409 33.5412 30.6409C32.6986 30.6409 31.9641 30.3804 31.3376 29.8595C30.7327 29.3168 30.4303 28.5245 30.4303 27.4825V22.0449H25.3102V27.4825C25.3102 28.5245 24.997 29.3168 24.3705 29.8595C23.744 30.3804 22.9987 30.6409 22.1345 30.6409C21.292 30.6409 20.5575 30.3804 19.931 29.8595C19.3261 29.3168 19.0236 28.5245 19.0236 27.4825V10.616C19.0236 9.6175 19.3261 8.84689 19.931 8.30421C20.5575 7.76153 21.292 7.49019 22.1345 7.49019C22.9987 7.49019 23.744 7.76153 24.3705 8.30421C24.997 8.84689 25.3102 9.6175 25.3102 10.616V16.0862H30.4303V10.616C30.4303 9.6175 30.7327 8.84689 31.3376 8.30421C31.9641 7.76153 32.6986 7.49019 33.5412 7.49019C34.4053 7.49019 35.1506 7.76153 35.7771 8.30421C36.4036 8.84689 36.7169 9.6175 36.7169 10.616V27.4825Z" fill="white"/>
<path d="M45.5944 27.4825C45.5944 28.5245 45.2811 29.3168 44.6546 29.8595C44.0281 30.3804 43.2936 30.6409 42.4511 30.6409C41.5869 30.6409 40.8416 30.3804 40.2151 29.8595C39.6102 29.3168 39.3078 28.5245 39.3078 27.4825V10.616C39.3078 9.6175 39.6102 8.84689 40.2151 8.30421C40.8416 7.76153 41.5869 7.49019 42.4511 7.49019C43.2936 7.49019 44.0281 7.76153 44.6546 8.30421C45.2811 8.84689 45.5944 9.6175 45.5944 10.616V27.4825Z" fill="white"/>
<path d="M55.7506 21.8495C55.6426 21.6759 55.5346 21.4371 55.4266 21.1332C55.3402 20.8293 55.297 20.4928 55.297 20.1238C55.297 19.1687 55.4806 18.4306 55.8479 17.9097C56.2367 17.3887 56.8632 17.1282 57.7274 17.1282H58.181C58.7211 17.1282 59.1532 16.9762 59.4772 16.6723C59.8013 16.3684 59.9633 15.8909 59.9633 15.2397C59.9633 14.6536 59.8013 14.2411 59.4772 14.0024C59.1532 13.7636 58.6563 13.6442 57.9866 13.6442H54.5841V27.2546C54.5841 29.4253 53.5363 30.5107 51.4408 30.5107C49.3236 30.5107 48.265 29.447 48.265 27.3197V10.7788C48.265 8.65153 49.2804 7.58787 51.3111 7.58787H58.1162C59.4556 7.58787 60.6114 7.79409 61.5836 8.20653C62.5557 8.59726 63.3551 9.11823 63.9816 9.76945C64.6081 10.4207 65.0725 11.1696 65.375 12.0161C65.6775 12.841 65.8287 13.6876 65.8287 14.5559C65.8287 16.1188 65.4506 17.4429 64.6945 18.5283C63.96 19.6137 63.0634 20.3734 62.0049 20.8076L65.0185 25.5614C65.429 26.2995 65.6342 26.9507 65.6342 27.5151C65.6342 27.9709 65.537 28.3942 65.3426 28.785C65.1482 29.1757 64.8889 29.5122 64.5649 29.7943C64.2408 30.0548 63.8736 30.2611 63.4631 30.413C63.0526 30.565 62.6422 30.6409 62.2317 30.6409C61.7348 30.6409 61.2379 30.5107 60.741 30.2502C60.2658 29.9897 59.8769 29.5773 59.5745 29.0129L55.7506 21.8495Z" fill="white"/>
<path d="M74.2654 27.4825C74.2654 28.5245 73.9522 29.3168 73.3257 29.8595C72.6992 30.3804 71.9647 30.6409 71.1221 30.6409C70.258 30.6409 69.5127 30.3804 68.8862 29.8595C68.2813 29.3168 67.9788 28.5245 67.9788 27.4825V10.616C67.9788 9.6175 68.2813 8.84689 68.8862 8.30421C69.5127 7.76153 70.258 7.49019 71.1221 7.49019C71.9647 7.49019 72.6992 7.76153 73.3257 8.30421C73.9522 8.84689 74.2654 9.6175 74.2654 10.616V27.4825Z" fill="white"/>
<path d="M100.993 23.2171C100.993 28.0795 98.6273 30.5107 93.8961 30.5107H87.6419C87.1235 30.5107 86.6698 30.4239 86.2809 30.2502C85.8921 30.0548 85.568 29.8161 85.3088 29.5339C85.0495 29.23 84.8551 28.8935 84.7255 28.5245C84.5958 28.1337 84.531 27.7322 84.531 27.3197C84.531 26.929 84.5958 26.5491 84.7255 26.1801C84.8551 25.7894 85.0495 25.4529 85.3088 25.1707C85.5896 24.8668 85.9245 24.628 86.3133 24.4544C86.7238 24.259 87.1883 24.1613 87.7067 24.1613H94.2526C94.6847 24.1613 94.9979 24.0419 95.1924 23.8032C95.4084 23.5427 95.5164 23.2713 95.5164 22.9891C95.5164 22.6852 95.4084 22.403 95.1924 22.1426C94.9979 21.8821 94.6847 21.7518 94.2526 21.7518H91.0121C88.7869 21.7518 87.1127 21.2091 85.9893 20.1238C84.8659 19.0384 84.3042 17.3127 84.3042 14.9466C84.3042 10.0408 86.6914 7.58787 91.4658 7.58787H96.521C97.0611 7.58787 97.5363 7.68555 97.9468 7.88092C98.3573 8.05458 98.7029 8.29336 98.9838 8.59726C99.2646 8.87945 99.4698 9.21591 99.5995 9.60664C99.7507 9.97567 99.8263 10.3555 99.8263 10.7463C99.8263 11.137 99.7507 11.5277 99.5995 11.9185C99.4698 12.3092 99.2646 12.6565 98.9838 12.9604C98.7029 13.2643 98.3465 13.5139 97.9144 13.7093C97.5039 13.883 97.0286 13.9698 96.4886 13.9698H91.0445C90.6124 13.9698 90.2992 14.1 90.1047 14.3605C89.9103 14.5993 89.8131 14.8706 89.8131 15.1745C89.8131 15.4567 89.9103 15.7281 90.1047 15.9886C90.2992 16.2273 90.6124 16.3467 91.0445 16.3467H94.285C96.575 16.3467 98.26 16.9003 99.3402 18.0073C100.442 19.1144 100.993 20.851 100.993 23.2171Z" fill="white"/>
<path d="M114.184 27.4825C114.184 28.5245 113.87 29.3168 113.244 29.8595C112.617 30.3804 111.872 30.6409 111.008 30.6409C110.165 30.6409 109.431 30.3804 108.804 29.8595C108.199 29.3168 107.897 28.5245 107.897 27.4825V13.9698H105.693C104.7 13.9698 103.922 13.655 103.36 13.0255C102.82 12.396 102.55 11.6471 102.55 10.7788C102.55 9.91054 102.82 9.16165 103.36 8.53214C103.922 7.90263 104.7 7.58787 105.693 7.58787H116.322C117.316 7.58787 118.094 7.90263 118.656 8.53214C119.217 9.16165 119.498 9.91054 119.498 10.7788C119.498 11.6471 119.217 12.396 118.656 13.0255C118.094 13.655 117.316 13.9698 116.322 13.9698H114.184V27.4825Z" fill="white"/>
<path d="M139.739 20.6773C139.739 27.3848 136.682 30.7386 130.568 30.7386C124.368 30.7386 121.268 27.3848 121.268 20.6773V10.616C121.268 9.6175 121.581 8.84689 122.208 8.30421C122.834 7.76153 123.569 7.49019 124.411 7.49019C125.275 7.49019 126.01 7.76153 126.615 8.30421C127.241 8.84689 127.555 9.6175 127.555 10.616V21.6541C127.555 23.521 128.537 24.4544 130.503 24.4544C132.469 24.4544 133.452 23.521 133.452 21.6541V10.616C133.452 10.1168 133.539 9.67177 133.712 9.28104C133.884 8.89031 134.111 8.5647 134.392 8.30421C134.673 8.04372 134.997 7.84836 135.364 7.71812C135.753 7.56617 136.153 7.49019 136.563 7.49019C137.427 7.49019 138.173 7.76153 138.799 8.30421C139.426 8.84689 139.739 9.6175 139.739 10.616V20.6773Z" fill="white"/>
<path d="M142.189 10.7788C142.189 10.3664 142.286 9.96481 142.48 9.57408C142.675 9.18335 142.923 8.84689 143.226 8.5647C143.55 8.2608 143.906 8.02202 144.295 7.84836C144.684 7.6747 145.073 7.58787 145.462 7.58787H148.508C150.474 7.58787 152.191 7.92433 153.66 8.59726C155.151 9.27018 156.382 10.1493 157.354 11.2347C158.348 12.32 159.093 13.5682 159.59 14.9792C160.087 16.3684 160.336 17.7794 160.336 19.2121C160.336 20.6448 160.098 22.034 159.623 23.3799C159.148 24.7257 158.435 25.9305 157.484 26.9941C156.534 28.0578 155.356 28.9152 153.952 29.5664C152.548 30.1959 150.906 30.5107 149.026 30.5107H145.462C144.468 30.5107 143.669 30.2285 143.064 29.6641C142.48 29.0997 142.189 28.3183 142.189 27.3197V10.7788ZM149.059 24.1613C149.88 24.1613 150.603 24.0094 151.23 23.7055C151.878 23.4016 152.407 23.0108 152.818 22.5333C153.25 22.034 153.574 21.4696 153.79 20.8401C154.006 20.1889 154.114 19.5377 154.114 18.8865C154.114 18.2787 154.006 17.6926 153.79 17.1282C153.595 16.5421 153.293 16.0211 152.883 15.5653C152.472 15.1094 151.943 14.7404 151.295 14.4582C150.647 14.176 149.89 14.0349 149.026 14.0349H148.475V24.1613H149.059Z" fill="white"/>
<path d="M168.696 27.4825C168.696 28.5245 168.383 29.3168 167.756 29.8595C167.13 30.3804 166.395 30.6409 165.553 30.6409C164.689 30.6409 163.943 30.3804 163.317 29.8595C162.712 29.3168 162.41 28.5245 162.41 27.4825V10.616C162.41 9.6175 162.712 8.84689 163.317 8.30421C163.943 7.76153 164.689 7.49019 165.553 7.49019C166.395 7.49019 167.13 7.76153 167.756 8.30421C168.383 8.84689 168.696 9.6175 168.696 10.616V27.4825Z" fill="white"/>
<path d="M170.946 19.0493C170.946 17.4212 171.248 15.9017 171.853 14.4908C172.458 13.0798 173.29 11.8425 174.348 10.7788C175.407 9.71518 176.638 8.87945 178.042 8.27165C179.447 7.66385 180.959 7.35995 182.579 7.35995C184.199 7.35995 185.712 7.66385 187.116 8.27165C188.542 8.87945 189.773 9.71518 190.81 10.7788C191.869 11.8425 192.7 13.0798 193.305 14.4908C193.932 15.9017 194.245 17.4212 194.245 19.0493C194.245 20.6773 193.932 22.1968 193.305 23.6078C192.7 25.0188 191.869 26.2561 190.81 27.3197C189.773 28.3834 188.542 29.2191 187.116 29.8269C185.712 30.4347 184.199 30.7386 182.579 30.7386C180.959 30.7386 179.447 30.4347 178.042 29.8269C176.638 29.2191 175.407 28.3834 174.348 27.3197C173.29 26.2561 172.458 25.0188 171.853 23.6078C171.248 22.1968 170.946 20.6773 170.946 19.0493ZM177.329 19.147C177.329 19.885 177.47 20.5796 177.751 21.2309C178.032 21.8604 178.41 22.4139 178.885 22.8915C179.36 23.369 179.911 23.7489 180.538 24.0311C181.186 24.2916 181.877 24.4218 182.612 24.4218C183.346 24.4218 184.027 24.2916 184.653 24.0311C185.301 23.7489 185.863 23.369 186.338 22.8915C186.835 22.4139 187.224 21.8604 187.505 21.2309C187.786 20.5796 187.926 19.885 187.926 19.147C187.926 18.4089 187.786 17.7143 187.505 17.0631C187.224 16.4119 186.835 15.8475 186.338 15.3699C185.863 14.8923 185.301 14.5125 184.653 14.2303C184.027 13.9481 183.346 13.807 182.612 13.807C181.877 13.807 181.186 13.9481 180.538 14.2303C179.911 14.5125 179.36 14.8923 178.885 15.3699C178.41 15.8475 178.032 16.4119 177.751 17.0631C177.47 17.7143 177.329 18.4089 177.329 19.147Z" fill="white"/>
<path d="M194.053 7.88913C197.198 7.59538 198.959 9.28678 199.87 10.1372C199.87 10.1372 197.74 13.9961 193.475 14.1427C190.433 14.2473 189.269 12.9828 189.146 11.6412L189.147 11.638C189.453 10.9872 190.763 8.19629 194.053 7.88913Z" fill="white"/>
<path d="M192.08 6.34976C192.273 3.07867 190.589 0.913981 189.675 0C189.675 0 185.827 2.2609 185.827 6.68649C185.827 9.84424 188.328 11.1762 189.723 11.2564C190.381 10.9197 191.879 9.7758 192.08 6.34976Z" fill="white"/>
</svg>
