<svg width="751" height="709" viewBox="0 0 751 709" fill="none" xmlns="http://www.w3.org/2000/svg">
<path fill-rule="evenodd" clip-rule="evenodd" d="M321.818 74.3134C321.818 74.3134 340.888 -14.2694 490.372 16.4884C490.372 16.4884 665.71 47.4574 629.398 315.455C629.398 315.455 617.71 451.405 740.125 397.271C740.125 397.271 701.371 472.936 631.243 439.717C631.243 439.717 640.339 450.483 599.87 513.537C558.366 578.203 604.791 667.326 604.791 667.326C604.791 667.326 556.809 680.86 532.202 611.347L513.848 640.983C513.848 640.983 494.328 630.328 489.516 536.452C487.059 488.529 639.855 219.491 321.818 74.3134Z" fill="#3E3D41" stroke="black" stroke-width="20" stroke-linejoin="round"/>
<path fill-rule="evenodd" clip-rule="evenodd" d="M523.267 478.822C523.267 478.822 576.355 471.86 559.819 532.78C543.284 593.7 480.623 580.646 480.623 580.646L523.267 478.822Z" fill="#FAE9E0" stroke="black" stroke-width="20" stroke-linejoin="round"/>
<path fill-rule="evenodd" clip-rule="evenodd" d="M119.453 583.257C119.453 583.257 51.8033 597.992 35.0353 532.78C19.3693 471.86 76.8093 484.914 76.8093 484.914L119.453 583.257Z" fill="#FAE9E0" stroke="black" stroke-width="20" stroke-linejoin="round"/>
<path fill-rule="evenodd" clip-rule="evenodd" d="M235.845 642.223C255.872 644.426 279.245 645.059 306.488 643.375C464.854 633.589 480.867 580.208 480.867 580.208L536.322 445.751C536.322 445.751 621.124 84.2604 289.584 102.445C-51.1235 121.133 61.1435 451.843 61.1435 451.843L120.544 584.656C120.544 584.656 139.451 631.619 235.845 642.223Z" fill="#FAE9E0" stroke="black" stroke-width="20" stroke-linejoin="round"/>
<path fill-rule="evenodd" clip-rule="evenodd" d="M321.518 70.6354C304.988 70.6514 294.922 72.1964 294.922 72.1964C294.922 72.1964 131.22 57.9614 49.3692 201.2C-32.4828 344.44 38.6922 484.121 38.6922 484.121L87.9962 466.316L82.5962 304.007L102.453 449.785L133.782 432.005C133.782 432.005 152.486 265.172 181.169 218.371C181.169 218.371 162.5 411.469 168.858 416.142C175.216 420.815 201.777 414.428 201.777 414.428C201.777 414.428 215.578 233.381 222.542 218.619C222.542 218.619 245.487 421.429 283.927 423.25C322.367 425.071 385.823 419.596 385.823 419.596C385.823 419.596 401.544 291.125 390.351 243.061C390.351 243.061 426.339 394.566 423.661 412.661L467.013 440.312C467.013 440.312 491.413 389.071 491.14 361.336C491.14 361.336 491.99 437.928 490.356 449.903C488.722 461.877 538.385 483.352 538.385 483.352C538.385 483.352 660.41 343.648 533.491 174.136C464.918 82.5504 367.838 70.5914 321.518 70.6354Z" fill="#3E3D41" stroke="black" stroke-width="20" stroke-linejoin="round"/>
<path fill-rule="evenodd" clip-rule="evenodd" d="M445.556 480.583L431.369 486.396C429.885 485.85 405.814 477.232 384.369 487.239C362.246 497.564 363.467 530.385 401.806 522.833C426.947 517.881 431.135 499.089 431.775 490.802L445.556 480.583Z" fill="black"/>
<path fill-rule="evenodd" clip-rule="evenodd" d="M150.42 479.04L164.607 484.853C166.091 484.307 190.162 475.689 211.607 485.697C233.73 496.021 232.509 528.842 194.17 521.29C169.029 516.338 164.841 497.546 164.201 489.259L150.42 479.04Z" fill="black"/>
<path fill-rule="evenodd" clip-rule="evenodd" d="M287.654 593.595C287.654 593.595 275.221 587.834 280.376 579.343C285.531 570.851 311.308 582.678 309.185 596.022C307.062 609.365 281.892 611.791 280.073 601.177C278.253 590.563 287.654 593.595 287.654 593.595Z" fill="#E83E62"/>
<path fill-rule="evenodd" clip-rule="evenodd" d="M97.415 509.099C97.415 509.099 158.672 491.511 199.308 538.515C239.944 585.519 194.374 624.184 194.374 624.184C194.374 624.184 151.697 615.541 135.321 590.978C118.946 566.414 97.415 509.099 97.415 509.099Z" fill="#F6CBEE"/>
<path fill-rule="evenodd" clip-rule="evenodd" d="M501.03 504.338C501.03 504.338 439.773 486.749 399.137 533.753C358.501 580.758 408.841 616.541 408.841 616.541C408.841 616.541 452.034 607.315 468.409 582.752C484.785 558.188 501.03 504.338 501.03 504.338Z" fill="#F6CBEE"/>
<path fill-rule="evenodd" clip-rule="evenodd" d="M507.781 618.728C507.781 618.728 492.062 590.657 476.905 583.917C461.747 577.187 435.924 582.238 435.924 582.238C435.924 582.238 406.732 598.518 412.907 617.608C412.907 617.608 397.75 637.247 405.609 659.147C413.469 681.037 435.924 684.968 435.924 684.968C435.924 684.968 462.309 716.407 495.43 683.287C528.552 650.167 507.781 618.728 507.781 618.728Z" fill="#FBE9DF" stroke="black" stroke-width="20" stroke-linejoin="round"/>
<path fill-rule="evenodd" clip-rule="evenodd" d="M95.9671 618.167C95.9671 618.167 111.686 590.097 126.843 583.357C142.001 576.617 167.824 581.677 167.824 581.677C167.824 581.677 197.016 597.957 190.841 617.037C190.841 617.037 205.998 636.687 198.139 658.587C190.279 680.477 167.824 684.407 167.824 684.407C167.824 684.407 141.439 715.847 108.318 682.727C75.1961 649.597 95.9671 618.167 95.9671 618.167Z" fill="#FBE9DF" stroke="black" stroke-width="20" stroke-linejoin="round"/>
</svg>
